<svg id="svg" version="1.1" xmlns="http://www.w3.org/2000/svg" xmlns:xlink="http://www.w3.org/1999/xlink" width="400" height="400" viewBox="0, 0, 400,400"><g id="svgg"><path id="path0" d="M206.917 120.284 C 171.835 122.204,143.008 149.305,138.912 184.219 C 138.387 188.690,138.338 193.132,138.336 236.292 L 138.333 279.833 163.750 279.833 L 189.167 279.833 189.167 221.738 L 189.167 163.642 188.708 164.002 C 180.765 170.228,175.694 179.523,174.842 189.417 C 174.730 190.716,174.670 204.359,174.668 228.375 L 174.667 265.333 163.745 265.333 L 152.823 265.333 152.880 226.708 C 152.942 184.766,152.885 187.464,153.835 182.167 C 158.654 155.298,183.027 134.731,210.125 134.668 L 210.833 134.667 210.833 207.266 L 210.833 279.866 220.792 279.783 C 231.213 279.697,232.597 279.616,237.333 278.820 C 270.186 273.294,294.917 246.290,297.658 212.949 C 297.775 211.524,297.833 195.753,297.833 165.491 L 297.833 120.167 272.500 120.167 L 247.167 120.167 247.167 178.177 C 247.167 224.538,247.209 236.162,247.375 236.066 C 252.443 233.131,258.609 223.710,260.561 215.917 C 261.642 211.602,261.568 214.630,261.624 172.708 L 261.675 134.667 272.593 134.667 L 283.511 134.667 283.452 173.125 C 283.388 214.715,283.437 212.362,282.511 217.583 C 277.820 244.007,255.065 263.829,227.958 265.102 L 225.500 265.217 225.500 192.692 L 225.500 120.167 216.708 120.198 C 211.873 120.216,207.467 120.254,206.917 120.284 M115.129 121.318 C 108.828 126.387,104.382 134.003,102.620 142.747 L 102.250 144.583 102.207 212.125 L 102.163 279.667 109.332 279.667 L 116.500 279.667 116.500 200.000 C 116.500 156.183,116.467 120.333,116.427 120.333 C 116.386 120.333,115.802 120.776,115.129 121.318 " stroke="none" fill="#4b73c3" fill-rule="evenodd"></path><path id="path1" d="M195.583 43.605 C 103.934 46.498,34.426 126.387,44.502 217.250 C 54.268 305.312,135.535 367.879,223.083 354.740 C 317.830 340.520,377.691 245.330,349.478 153.750 C 328.879 86.884,265.333 41.404,195.583 43.605 M116.667 199.917 L 116.667 279.667 109.331 279.667 L 101.995 279.667 102.044 212.708 C 102.090 150.577,102.114 145.626,102.377 144.033 C 103.705 135.997,107.036 129.246,112.321 123.881 C 113.807 122.372,116.296 120.186,116.542 120.173 C 116.610 120.170,116.667 156.054,116.667 199.917 M225.500 192.681 L 225.500 265.196 227.542 265.087 C 256.243 263.551,278.238 243.803,282.862 215.417 L 283.242 213.083 283.291 173.875 L 283.340 134.667 272.503 134.667 L 261.667 134.667 261.666 171.708 C 261.666 196.599,261.607 209.379,261.488 210.667 C 260.742 218.725,257.201 226.455,251.568 232.324 C 250.080 233.874,247.514 236.167,247.267 236.167 C 247.212 236.167,247.167 210.067,247.167 178.167 L 247.167 120.167 272.583 120.167 L 298.000 120.167 297.994 163.208 C 297.989 206.065,297.931 211.312,297.415 215.750 C 293.730 247.473,269.495 273.162,238.000 278.731 C 232.763 279.656,231.808 279.716,220.958 279.791 L 210.833 279.860 210.833 207.305 L 210.834 134.750 209.292 134.793 C 180.672 135.585,156.877 157.152,153.346 185.500 C 152.886 189.201,152.834 193.513,152.834 228.708 L 152.833 265.167 163.750 265.167 L 174.667 265.167 174.667 227.827 C 174.667 202.376,174.724 189.972,174.845 188.868 C 175.945 178.913,181.016 169.869,188.875 163.849 C 189.153 163.637,189.167 166.419,189.167 221.730 L 189.167 279.833 163.744 279.833 L 138.322 279.833 138.383 233.625 C 138.428 200.060,138.497 187.006,138.636 185.917 C 139.298 180.744,139.853 177.703,140.781 174.171 C 147.760 147.577,169.638 126.963,196.583 121.591 C 202.630 120.386,204.980 120.219,216.292 120.190 L 225.500 120.167 225.500 192.681 " stroke="none" fill="#242424" fill-rule="evenodd"></path><path id="path2" d="" stroke="none" fill="#3a4c72" fill-rule="evenodd"></path><path id="path3" d="M116.458 171.125 C 116.481 199.152,116.519 235.058,116.542 250.917 C 116.565 266.775,116.603 243.844,116.625 199.958 C 116.648 156.073,116.610 120.167,116.542 120.167 C 116.473 120.167,116.435 143.098,116.458 171.125 M297.915 163.833 C 297.915 187.896,297.935 197.740,297.958 185.708 C 297.982 173.677,297.982 153.990,297.958 141.958 C 297.935 129.927,297.915 139.771,297.915 163.833 M209.708 134.782 C 209.869 134.823,210.131 134.823,210.292 134.782 C 210.452 134.740,210.321 134.705,210.000 134.705 C 209.679 134.705,209.548 134.740,209.708 134.782 M283.415 171.583 C 283.415 191.933,283.435 200.234,283.458 190.028 C 283.482 179.823,283.482 163.173,283.458 153.028 C 283.435 142.884,283.415 151.233,283.415 171.583 " stroke="none" fill="#2c3341" fill-rule="evenodd"></path><path id="path4" d="M102.082 214.000 C 102.082 250.162,102.102 264.956,102.125 246.875 C 102.148 228.794,102.148 199.206,102.125 181.125 C 102.102 163.044,102.082 177.838,102.082 214.000 M158.304 265.292 C 161.358 265.317,166.308 265.317,169.304 265.292 C 172.299 265.266,169.800 265.245,163.750 265.245 C 157.700 265.245,155.249 265.266,158.304 265.292 " stroke="none" fill="#3c5484" fill-rule="evenodd"></path></g></svg>