<?xml version="1.0" standalone="no"?>
<!DOCTYPE svg PUBLIC "-//W3C//DTD SVG 20010904//EN"
 "http://www.w3.org/TR/2001/REC-SVG-20010904/DTD/svg10.dtd">
<svg version="1.0" xmlns="http://www.w3.org/2000/svg"
 width="12500.000000pt" height="12500.000000pt" viewBox="0 0 12500.000000 12500.000000"
 preserveAspectRatio="xMidYMid meet">

<g transform="translate(0.000000,12500.000000) scale(0.100000,-0.100000)"
fill="#000000" stroke="none">
<path d="M61900 111374 c-1876 -27 -3658 -147 -5460 -370 -6914 -853 -13552
-3179 -19492 -6830 -4445 -2732 -8421 -6150 -11789 -10134 -2787 -3297 -5135
-6960 -6956 -10855 -2736 -5849 -4275 -12176 -4538 -18655 -53 -1313 -53
-2747 0 -4060 315 -7753 2452 -15259 6263 -22000 2633 -4657 6044 -8886 10047
-12455 4070 -3630 8702 -6548 13705 -8637 5324 -2223 10998 -3477 16790 -3713
1313 -53 2747 -53 4060 0 7753 315 15259 2452 22000 6263 5221 2951 9898 6879
13716 11517 5754 6991 9434 15373 10668 24305 250 1804 390 3525 447 5485 25
861 14 2309 -26 3295 -315 7753 -2452 15259 -6263 22000 -2633 4657 -6044
8886 -10047 12455 -6890 6144 -15316 10193 -24370 11714 -2270 381 -4527 598
-6870 661 -399 10 -1536 19 -1885 14z"/>
</g>
</svg>
